<svg xmlns="http://www.w3.org/2000/svg" viewBox="0 0 523.96 174.31"><defs><style>.cls-1{fill:#f24535;}</style></defs><g id="Capa_2" data-name="Capa 2"><g id="Capa_1-2" data-name="Capa 1"><path class="cls-1" d="M130.56,173.53H89.93c-9.15,0-12.29-7.42-7-16.57L163.8,16.88c5.29-9.15,17-16.57,26.14-16.57L228.39,1c9.16,0,14.48,6.75,9.19,15.9L156.71,157C151.42,166.11,139.72,173.53,130.56,173.53Z"/><path class="cls-1" d="M159.47,14.38A40.53,40.53,0,0,1,173.29.62L27.6,1.55C17,1.62,12.22,8.08,16.84,16L37.38,51C40.86,57,48.69,62,56.85,64.15L2.57,157.8c-5.29,9.12-2.15,16.51,7,16.51H50.21c9.15,0,20.85-7.39,26.14-16.51l53.91-93h.1Z"/><path class="cls-1" d="M171.17,157.27c-5,9.15-2,16.57,6.61,16.57h38.31c8.63,0,19.66-7.42,24.64-16.57l7.16-13.15L212.13,82Z"/><path class="cls-1" d="M258.52,14.42,289.35,68l9.25-17,12.17,0L295.28,78.26l22.17,38.48a24.84,24.84,0,0,0,11.46-10L383,11.38C386.52,5.15,384.46,0,378.25,0L350.6.4l-.71,0-73.3.17h-4.52c-5.68,0-12.4,3.23-17.75,8A36,36,0,0,1,258.52,14.42Z"/><path class="cls-1" d="M517.5,0,489.85.4l-.71,0L415.83.61h-4.51c-8.63,0-19.67,7.42-24.65,16.58l-61.49,113,14.21,24.68c3.7,6.42,4.24,12.82,1.5,17.57a12.82,12.82,0,0,1-1,1.43h15.42c8.62,0,19.66-7.42,24.64-16.57L401,118.59l46.31-.33c.42,0,.82,0,1.21-.08l2,0c6.21,0,14.1-5.14,17.64-11.38l54.08-95.4C525.77,5.15,523.71,0,517.5,0ZM437.85,51l12.17,0L427.9,90,416.58,90Z"/><path class="cls-1" d="M287.42,174h40.63c9.16,0,12.29-7.44,7-16.62L254.18,16.92C248.9,7.74,237.19.31,228,.31H187.41c-7.42,2.41-11.82,8.09-7,16.61l80.88,140.41C266.56,166.51,278.27,174,287.42,174Z"/></g></g></svg>